<svg xmlns="http://www.w3.org/2000/svg" width="231" height="17" viewBox="0 0 231 17">
  <defs>
    <style>
      .cls-1 {
        fill: #b0976d;
        fill-rule: evenodd;
      }
    </style>
  </defs>
  <path id="wave-line.svg" class="cls-1" d="M1455,5391.75l0.64-.75,18.98,15.65-0.65.75L1455,5391.75m19.3,15.49,0.65,0.76,19.32-15.87-0.66-.76-19.31,15.87m18.65-15.49,0.64-.75,18.97,15.65-0.64.75-18.97-15.65m19.29,15.49,0.66,0.76,19.31-15.87-0.65-.76-19.32,15.87m19.65-15.49,0.65-.75,18.97,15.65-0.64.75-18.98-15.65m19.3,15.49,0.65,0.76,19.32-15.87-0.65-.76-19.32,15.87m18.65-15.49,0.64-.75,18.98,15.65-0.65.75-18.97-15.65m19.3,15.49,0.65,0.76,19.32-15.87-0.66-.76-19.31,15.87m19.65-15.49,0.64-.75,18.97,15.65-0.64.75-18.97-15.65m19.29,15.49,0.66,0.76,19.31-15.87-0.65-.76-19.32,15.87m18.65-15.49,0.65-.75,18.97,15.65-0.64.75-18.98-15.65m19.3,15.49,0.65,0.76,19.32-15.87-0.65-.76-19.32,15.87" transform="translate(-1455 -5391)"/>
</svg>
